<svg version="1.1" id="Layer_1" xmlns="http://www.w3.org/2000/svg" xmlns:xlink="http://www.w3.org/1999/xlink" x="0px" y="0px"
	 width="100%" viewBox="0 0 1024 1024" enable-background="new 0 0 1024 1024" xml:space="preserve">
<path fill="#000000" opacity="1.000000" stroke="none" 
	d="
M666.106018,230.782959 
	C714.658325,257.441498 754.320496,293.339966 784.557068,339.349945 
	C811.330872,380.090759 829.096313,424.436523 836.444031,472.794464 
	C840.234924,497.743469 841.699341,522.826355 839.097961,547.924255 
	C833.771912,599.309082 818.264343,647.406433 791.166260,691.594727 
	C751.071228,756.976685 694.276917,801.962219 622.953064,829.048706 
	C594.315247,839.924316 564.636841,846.219421 534.021118,848.485046 
	C470.763824,853.166016 411.199738,840.408020 354.915192,811.551453 
	C350.728668,809.405090 346.900360,807.953186 341.735870,809.034363 
	C332.502167,810.967468 326.324524,806.589417 323.782440,797.429138 
	C322.917145,794.311096 321.326660,792.077026 318.773010,790.304199 
	C303.006958,779.358887 288.146698,767.287476 274.144440,754.167969 
	C271.122986,751.336914 267.514618,750.642639 263.610779,750.355896 
	C251.688644,749.480347 246.764633,745.352661 244.752960,733.683533 
	C242.838852,722.580444 239.010315,712.722351 232.700027,703.050659 
	C206.331238,662.635742 189.452286,618.270691 182.005447,570.599060 
	C174.925873,525.278564 177.938248,480.362885 189.579559,435.970612 
	C202.854355,385.349304 227.342590,340.741730 262.196594,301.981964 
	C313.917786,244.464890 378.776794,209.965271 454.302216,195.185165 
	C484.854736,189.206131 515.686401,188.673096 546.681458,192.405609 
	C588.897156,197.489334 628.362244,210.759277 666.106018,230.782959 
M364.348846,285.113373 
	C363.888794,282.949677 362.480286,280.888458 363.465454,278.387360 
	C366.662018,278.458221 367.579193,282.298523 370.679688,282.555817 
	C371.250427,278.881165 370.087830,275.353760 371.400513,271.125275 
	C383.241089,277.680084 388.622162,287.393524 388.516418,300.450867 
	C390.995880,299.335571 390.663910,296.165100 393.953461,295.672974 
	C393.551483,304.784119 389.239532,312.370544 386.681427,320.720490 
	C390.375397,318.219299 391.998505,313.687897 397.028442,312.501404 
	C394.751404,320.326569 390.874695,326.722626 387.913971,333.596252 
	C390.918854,331.214386 392.849518,327.657776 397.698425,325.220459 
	C394.246033,332.718353 391.346680,339.015198 388.447296,345.312073 
	C392.047028,342.612213 393.546844,338.153503 397.131378,336.135223 
	C399.038208,337.252472 396.537750,338.464905 397.960480,339.376740 
	C403.876831,334.857056 408.770233,328.992279 415.915619,326.131561 
	C417.425018,330.126160 417.464325,330.281982 420.563751,329.500458 
	C442.791595,323.895416 461.952942,330.452515 479.236969,344.291809 
	C483.075562,347.365387 486.457245,350.944977 489.312164,355.913971 
	C483.553253,355.860229 479.194397,352.431305 474.908752,352.997559 
	C472.635315,354.350861 474.867828,356.415039 472.540833,357.587738 
	C466.886810,355.409485 461.087250,352.363403 454.542908,350.730713 
	C454.557434,354.219177 458.522400,354.636566 458.062561,357.955536 
	C450.788696,356.829193 443.872650,353.266937 435.915924,354.150299 
	C437.467316,357.672241 441.533142,357.134399 442.558105,360.794037 
	C434.488007,362.111481 426.570862,360.507996 418.435150,361.371521 
	C421.472565,364.454163 419.311523,365.094910 417.170227,365.196991 
	C413.461365,365.373840 410.004211,366.738007 406.385651,367.169037 
	C402.992676,367.573212 403.346039,369.220825 404.176025,371.454132 
	C431.986298,368.991669 446.077362,371.174652 450.519592,378.544617 
	C449.438721,379.856262 447.095673,378.009949 446.308807,380.171997 
	C466.826813,395.724457 478.667633,416.860718 474.305054,430.576538 
	C471.530945,429.092316 469.870483,426.603851 467.980194,424.360962 
	C466.379700,422.461975 464.175842,419.249115 462.539551,419.725525 
	C456.085327,421.604706 454.907227,417.511475 453.458099,413.132019 
	C453.110840,412.082672 452.624512,410.894592 451.146637,410.806671 
	C448.719025,411.384338 449.317505,414.646545 446.857086,415.562012 
	C443.838898,412.572235 445.249878,406.688568 440.171753,404.584961 
	C439.279602,406.632721 438.505005,408.410706 437.663086,410.343140 
	C434.923431,408.393188 434.418610,405.185333 432.615417,402.867249 
	C431.728210,401.726746 430.779907,399.675659 429.202942,400.856262 
	C426.207458,403.098846 424.690186,400.844757 422.775085,399.426422 
	C421.708221,398.636383 420.409149,397.298889 419.257751,398.026825 
	C416.093658,400.027374 413.880859,397.859894 411.458557,396.679810 
	C407.922638,394.957153 404.374298,393.360535 399.075348,392.781708 
	C409.912781,401.111206 421.163757,406.974243 429.394623,416.129211 
	C428.534760,418.186890 426.736237,416.521942 426.137512,418.216888 
	C430.447052,422.833649 435.699219,426.859711 438.045258,433.603088 
	C434.094116,434.186798 434.930054,436.321686 436.245026,438.570312 
	C438.227173,441.959808 440.848022,445.058502 441.291901,449.156433 
	C437.779572,450.516541 436.331818,455.879120 438.520905,462.867218 
	C439.975006,467.509125 444.951813,466.592529 448.688690,467.997070 
	C449.434174,463.405243 446.014526,461.034119 445.141418,457.644287 
	C446.282166,457.375183 447.155151,457.169250 447.956818,456.980164 
	C448.120087,455.068604 445.688019,453.375183 446.973724,452.143951 
	C449.920197,449.322357 447.553864,447.391632 446.469727,445.134491 
	C445.915009,443.979584 444.877197,442.925995 445.717651,440.999512 
	C451.425446,440.551544 456.195190,443.111816 458.946014,447.781586 
	C461.428680,451.996094 466.582550,453.677216 468.032654,458.554810 
	C468.079498,458.712311 468.619049,458.723389 469.346466,458.909637 
	C473.098175,454.334991 478.414032,452.153992 484.266602,451.049622 
	C485.434296,450.829315 486.639984,450.765839 487.511627,451.766083 
	C488.127625,452.472931 488.119904,453.415497 487.477783,454.041168 
	C484.113617,457.319031 486.134003,461.937836 484.474976,465.707336 
	C483.140869,466.719208 480.670135,465.840454 479.906677,468.419617 
	C481.697113,469.412109 480.893555,472.654846 484.156281,472.818115 
	C494.218353,473.321564 499.535004,480.390533 504.362976,487.967377 
	C505.138153,489.183990 505.924438,490.591980 504.460205,492.655457 
	C497.629761,487.147980 489.553711,488.977448 481.401703,488.782410 
	C494.148956,499.130676 498.769775,513.734131 491.385559,520.633667 
	C486.290649,509.694946 475.796265,504.497772 466.958160,497.174927 
	C472.565460,525.970581 468.419586,553.976685 461.144135,582.150696 
	C464.971649,581.552124 466.599426,579.579163 468.488098,578.008728 
	C476.251862,571.553101 482.983704,563.627197 493.156311,560.591187 
	C497.451385,559.309265 500.136475,556.386841 502.134460,552.483765 
	C504.003693,548.832397 505.618805,544.964783 508.664368,541.966064 
	C511.680603,542.898560 512.930542,545.373840 514.106323,547.666870 
	C517.599915,554.480225 520.857117,561.414551 524.248169,568.281128 
	C525.286743,570.384155 525.788025,573.046265 528.778748,573.502930 
	C530.786560,571.517883 528.823181,568.696716 530.917480,566.442993 
	C539.897278,571.982788 547.580750,579.562805 557.216492,584.678589 
	C558.189819,580.957520 554.886597,579.314148 555.045532,576.250061 
	C562.579224,577.858398 569.561035,580.099487 576.843506,580.826172 
	C578.086243,580.950195 579.012573,581.719727 579.651855,582.730408 
	C586.606079,593.723877 597.456116,600.547302 607.152222,608.628357 
	C609.849976,610.876831 613.313538,612.331238 616.427307,616.979614 
	C529.910828,616.979614 444.766663,616.979614 359.622498,616.979614 
	C359.589966,617.517822 359.557434,618.055969 359.524902,618.594177 
	C364.248169,621.740295 369.343536,623.806641 375.194519,623.802063 
	C392.524384,623.788574 409.854584,623.745178 427.183777,623.856079 
	C430.012878,623.874146 434.157196,622.819092 434.987457,626.470215 
	C435.833252,630.189575 431.325012,631.034729 429.065399,633.015747 
	C427.902252,634.035522 426.244843,633.914001 424.739899,633.901184 
	C416.409973,633.830505 408.215576,635.903198 399.840363,635.401062 
	C397.766815,635.276733 395.637360,636.084106 393.533600,636.463257 
	C395.420685,637.878967 397.206299,638.633606 398.954193,638.554443 
	C408.138214,638.138855 417.256378,639.192749 426.370056,639.840088 
	C436.722382,640.575195 447.410950,639.472168 457.713745,644.337219 
	C454.145996,646.952393 455.480011,648.629456 458.473267,649.760742 
	C461.098389,650.752991 463.719971,651.616638 466.564911,652.101135 
	C474.507385,653.453613 482.516296,652.105713 490.486511,653.341187 
	C499.079346,654.673035 506.843262,659.014771 515.598450,659.605164 
	C517.614502,659.741089 519.552124,661.200989 519.747314,663.411926 
	C520.140686,667.866516 523.223022,670.482300 526.038391,673.217041 
	C528.778931,675.879211 531.305847,678.802856 534.056946,681.341431 
	C538.212219,685.175659 541.205994,690.868469 547.649780,691.729492 
	C551.833130,692.288574 554.879700,693.679138 555.056763,698.700867 
	C555.114807,700.345703 556.454651,702.057983 557.495361,703.537476 
	C565.055725,714.284485 578.596985,714.258179 588.596069,720.646790 
	C589.190796,721.026794 590.231995,720.696777 591.064941,720.716614 
	C603.063904,721.001892 615.047058,720.596619 627.032471,720.049805 
	C629.566467,719.934265 632.423950,719.631531 634.440979,722.465576 
	C631.869080,725.171082 632.462708,727.941895 633.910828,731.078064 
	C635.833984,735.242920 633.968872,738.284668 629.445312,738.932312 
	C625.835999,739.449097 622.482666,738.807861 619.703796,736.170715 
	C617.728088,734.295776 615.533203,732.820007 612.618591,733.006348 
	C611.040771,733.107178 609.688416,733.437073 609.252014,735.315369 
	C607.880981,741.217041 613.517273,749.918701 619.502502,750.335632 
	C622.818237,750.566589 625.234192,751.895386 627.385376,754.034424 
	C629.856384,756.491455 632.520813,758.871643 634.460266,761.721375 
	C638.573853,767.765503 645.684570,771.045776 648.899353,777.893860 
	C650.085022,780.419556 652.057617,780.732300 654.678467,779.253113 
	C666.297302,772.695496 677.763489,765.928406 688.099365,757.414917 
	C689.135010,756.561829 690.641479,755.708984 690.497864,754.384155 
	C689.899048,748.858032 693.953064,748.859497 697.492126,748.149292 
	C698.788330,747.889160 700.721497,748.041199 701.267883,747.249023 
	C705.135803,741.641724 711.565247,739.112976 716.178284,734.373535 
	C725.224670,725.079224 732.831177,714.569214 741.594727,705.047241 
	C743.384155,703.103027 744.701111,700.723633 746.232849,698.542725 
	C747.119507,697.280334 747.737366,696.146729 746.766113,694.462158 
	C744.768250,690.996948 746.172302,689.224365 749.964539,688.854736 
	C751.964539,688.659790 754.408875,689.145081 755.174561,686.334290 
	C753.602295,684.096313 749.776428,686.260132 748.895874,682.369751 
	C752.811157,680.104370 754.452393,675.386841 758.481750,672.800598 
	C764.261658,669.090881 764.516418,667.615479 760.895752,661.942505 
	C763.857605,658.583374 769.119263,660.380981 772.333069,657.322815 
	C771.646362,655.971863 770.734192,655.492432 769.736938,655.501831 
	C762.515381,655.569641 755.485474,654.529602 748.583984,652.362061 
	C747.245789,651.941772 745.542480,652.134216 744.147461,652.533264 
	C734.568665,655.272705 724.932617,653.504333 715.317017,653.033081 
	C713.922668,652.964661 712.159119,653.076721 712.026184,650.840576 
	C714.080872,648.367371 718.149719,649.345032 720.476196,645.696533 
	C703.850281,639.688232 686.667419,645.585205 669.542419,642.100281 
	C672.434326,639.164246 675.247375,639.104004 678.055115,639.051880 
	C696.380493,638.711609 714.705261,638.320068 733.031799,638.058533 
	C747.529480,637.851562 762.031799,637.621033 776.527161,637.799622 
	C781.024048,637.855042 783.439697,636.273926 784.360596,632.093811 
	C784.814819,630.032043 786.357544,628.227600 785.803772,625.411621 
	C781.259949,625.077515 776.657043,624.575867 772.042908,624.430298 
	C758.391663,623.999695 744.714539,624.694153 731.081787,623.311646 
	C720.043335,622.192261 709.078247,619.766357 697.850586,621.835266 
	C694.716797,622.412720 691.793884,620.798828 687.947693,618.326660 
	C693.136047,617.067078 695.909912,612.965698 701.076538,614.503723 
	C710.567688,617.328979 720.083496,619.536682 729.145325,612.833801 
	C731.688538,610.952637 734.962830,610.458801 738.120544,609.973083 
	C743.902039,609.083740 749.711426,608.770691 755.554504,608.776001 
	C766.221130,608.785583 776.887695,608.725281 787.554321,608.690857 
	C789.740601,608.683838 792.008484,608.834778 792.899475,606.122131 
	C793.918701,603.018982 795.329224,599.991455 794.991882,596.765137 
	C793.490112,595.573059 791.996399,595.448547 790.493958,595.389954 
	C763.699951,594.344482 736.913513,592.891724 710.109253,592.386414 
	C686.619995,591.943542 663.172180,590.611755 639.695435,589.981079 
	C634.565918,589.843323 629.455383,588.750488 624.353821,587.980347 
	C622.972473,587.771729 621.251587,587.688293 621.034729,585.570984 
	C622.981812,583.438232 625.625977,583.887329 628.031250,583.837219 
	C644.687073,583.490173 661.343872,583.163635 678.002014,582.965271 
	C716.823303,582.502930 755.645630,582.126648 794.467224,581.686707 
	C799.270813,581.632263 801.752502,578.138123 801.548706,571.393311 
	C801.403809,566.595764 797.446045,568.381714 795.099365,568.368042 
	C767.766907,568.208435 740.432861,568.115295 713.100220,568.230774 
	C657.472656,568.465820 601.827820,569.336609 546.466980,562.226440 
	C544.827454,562.015869 542.963684,562.301819 541.791260,560.112244 
	C557.779480,558.092163 573.544739,559.364014 589.092651,556.869080 
	C570.971680,553.786804 552.574341,553.827209 534.305176,552.608154 
	C534.331970,551.962280 534.358765,551.316345 534.385620,550.670471 
	C550.065979,549.882507 565.746399,549.094543 581.426758,548.306641 
	C581.430359,547.778809 581.433899,547.250916 581.437439,546.723083 
	C562.875977,544.311707 544.031494,544.661438 525.453613,541.880066 
	C539.225098,539.679810 553.144714,540.101196 566.946716,538.271606 
	C549.966003,533.083313 532.209290,535.233154 515.009644,531.800110 
	C528.601868,530.301025 542.361145,531.363159 555.795288,528.098938 
	C542.200500,523.114868 527.648193,525.438721 513.850403,522.058899 
	C524.135010,519.325317 535.062988,522.507324 545.184814,518.193420 
	C536.527222,514.659912 526.995483,516.219971 517.194458,513.318298 
	C524.296631,510.007965 531.336548,513.502502 537.900452,510.122833 
	C532.704529,505.006927 525.589233,509.339325 520.394226,504.973816 
	C524.433228,502.339966 529.364197,505.156006 533.145386,501.987030 
	C529.354797,498.959351 524.354736,499.775879 520.667908,497.311005 
	C521.832153,494.108002 525.466064,495.921387 526.915283,493.733063 
	C525.266602,492.724304 519.567261,486.994446 518.441956,485.255432 
	C511.774536,474.951935 505.109589,464.646851 498.435303,454.347839 
	C497.252014,452.521851 496.341125,450.768982 496.466339,448.361420 
	C496.886047,440.292725 496.767883,440.291565 488.833679,440.241272 
	C488.554291,440.239502 488.276794,439.934387 487.663239,439.573547 
	C487.559784,413.308868 479.807678,389.785797 459.838806,371.011749 
	C466.831085,370.686768 472.838348,373.174347 479.482758,374.033600 
	C479.185608,370.694580 475.158905,370.285156 475.154938,367.078674 
	C475.986115,366.947418 476.768768,366.692017 477.540283,366.722107 
	C486.391571,367.067474 495.067688,368.558167 503.617981,370.825989 
	C505.576355,371.345398 507.674530,372.053711 509.141846,370.109283 
	C510.490448,368.322113 509.144318,366.592163 508.331055,365.007141 
	C494.699432,338.439362 473.630798,322.301788 443.653687,317.969055 
	C437.751312,317.115936 430.549438,319.995514 425.916748,313.369568 
	C425.463531,312.721375 423.364166,313.050079 422.061249,313.202179 
	C417.982483,313.678497 413.919250,314.287445 409.197876,314.934296 
	C409.973114,294.093170 400.751038,278.244019 384.457947,265.163818 
	C398.375977,255.982254 411.436340,247.366516 424.712830,238.608170 
	C422.644562,236.658752 421.194092,237.485123 419.828674,237.818283 
	C392.361664,244.519958 367.883087,257.380432 345.419922,274.262451 
	C343.240143,275.900635 341.606049,276.221191 339.130432,275.433044 
	C326.391388,271.377197 314.140533,272.901398 302.418793,279.130737 
	C300.565857,280.115448 298.381836,280.877716 297.822937,283.369659 
	C298.712952,285.400452 300.846283,285.908142 302.356384,287.141022 
	C312.162292,295.146820 312.295288,301.346344 302.331573,308.933167 
	C289.956818,318.355896 280.243713,330.107269 271.701202,342.929443 
	C270.000244,345.482605 268.217957,347.676575 265.259583,348.904175 
	C255.676208,352.880829 247.684097,359.162354 241.120911,367.059143 
	C235.751587,373.519470 230.352005,380.092987 227.126358,388.705078 
	C234.054230,390.861969 241.110428,388.487976 247.604782,391.060364 
	C214.915543,437.424347 208.502167,489.130188 213.452530,543.435425 
	C215.503250,541.640320 217.606888,540.390869 219.531357,538.909729 
	C218.261719,537.615723 216.162903,539.037964 215.529755,537.043213 
	C216.078018,534.997925 218.010666,534.448792 219.382782,533.314270 
	C220.368759,532.499146 222.614700,532.446228 222.377670,531.112793 
	C221.429703,525.779541 226.362930,526.614441 228.688812,524.788940 
	C226.060623,522.330383 222.132645,524.148010 219.079086,521.801941 
	C222.985184,518.771301 226.865677,517.112854 231.836014,518.548523 
	C229.898056,514.896118 225.454361,514.781616 223.988831,511.243073 
	C226.919693,507.837585 230.621460,511.255951 233.719437,510.221924 
	C232.320923,505.334869 225.932175,506.968506 223.841553,502.463531 
	C228.584167,500.721527 232.048386,503.829468 236.218323,503.826080 
	C234.827881,499.810486 232.811356,496.988770 228.161301,497.085297 
	C226.467667,497.120453 224.431717,496.978485 225.020309,494.478180 
	C225.570740,492.139954 227.296021,493.401520 228.660248,493.724426 
	C232.086029,494.535248 235.520493,495.309418 239.042099,496.119110 
	C238.745758,488.430878 238.745758,488.430878 241.134232,484.738739 
	C242.414307,491.182190 250.213608,494.936493 246.018219,502.724457 
	C249.278534,502.350616 250.000214,499.041016 253.597458,499.607208 
	C251.909393,503.160156 250.419708,506.295563 248.895004,509.504700 
	C252.343918,508.491791 254.946701,505.612701 258.866028,507.248993 
	C256.809052,510.033722 253.354004,511.011475 252.286942,514.356750 
	C254.749878,515.321106 257.560852,513.700012 259.654175,515.986389 
	C258.584106,518.541138 254.543304,518.081421 254.298538,521.267456 
	C260.734253,523.348633 260.734253,523.348633 262.129883,525.495056 
	C260.435791,527.136658 256.900055,525.518005 256.069763,528.765564 
	C264.123505,534.722473 264.575928,535.660156 260.846497,538.681213 
	C262.279205,540.415283 263.704803,542.140808 265.689789,544.543396 
	C277.419434,494.054718 303.315277,451.252289 330.613281,409.032196 
	C327.535370,411.357025 325.052307,414.279480 322.029572,416.450592 
	C319.555176,418.227844 318.559021,423.598328 313.677887,420.634125 
	C311.015198,422.725830 312.162628,429.154205 306.058502,427.467743 
	C303.413086,429.732330 305.134888,433.909882 302.703064,436.132416 
	C300.126160,435.583710 301.460449,432.386139 298.874176,432.044373 
	C295.080719,436.735626 297.162018,443.195404 294.570099,448.265137 
	C291.813629,447.440826 292.749878,444.185242 290.398804,443.148865 
	C287.475281,447.607971 288.015137,453.014191 286.528961,457.552673 
	C284.487030,458.577698 283.204742,456.113190 281.262604,457.266632 
	C278.488678,461.227203 278.408813,466.804993 274.202728,471.742401 
	C268.981201,452.917969 271.965637,436.127960 280.928589,419.654266 
	C276.938690,420.109070 275.675690,423.119171 272.099487,423.912628 
	C274.428925,417.419037 278.840607,413.142120 282.315613,408.500671 
	C281.569641,407.119934 280.091522,408.488678 279.311523,406.609680 
	C291.102417,393.122253 308.936462,391.033081 324.229767,384.064331 
	C320.229858,384.754395 316.185181,384.023621 312.259674,385.093384 
	C310.002655,385.708466 307.636444,385.569946 308.981293,381.909912 
	C303.669281,382.277802 300.009094,386.233459 295.180939,386.731598 
	C294.257355,383.822449 297.700745,382.614960 297.007233,379.877472 
	C290.954102,380.920807 286.316071,385.560425 279.999908,386.887024 
	C280.341522,382.356262 284.867981,380.644409 284.918762,376.203644 
	C277.283936,377.455872 271.505127,382.654572 264.144562,384.854156 
	C264.112854,381.040222 267.463806,379.110931 267.625458,375.837280 
	C260.325989,378.145905 253.360855,380.701691 244.553818,381.816803 
	C255.317398,366.905853 267.148193,355.746521 284.134277,351.325043 
	C300.946442,346.948853 316.904419,350.502563 332.749847,357.746826 
	C329.664124,349.931732 322.093353,349.377777 316.907684,345.910675 
	C317.221588,344.021515 319.668365,344.817963 319.574005,342.759796 
	C314.380157,339.192902 308.022766,338.909363 301.514709,337.535431 
	C304.259247,334.215607 308.177734,335.078766 311.356445,332.642059 
	C308.435699,332.793488 306.237122,332.174744 303.892181,332.783722 
	C301.808533,333.324860 299.676788,334.506683 296.742584,333.250305 
	C300.435638,328.964600 305.561035,328.076996 309.725586,325.675507 
	C308.544769,322.584198 304.344025,323.619629 303.127045,320.240662 
	C309.201630,317.154633 315.299713,317.408722 321.515930,319.198273 
	C327.769989,320.998749 332.385742,325.708649 338.451691,329.224213 
	C336.462189,325.441864 333.288635,323.231750 332.622437,319.366333 
	C336.549866,319.585114 339.119629,322.339600 342.623352,322.813812 
	C336.370209,318.481934 331.503479,312.814026 326.411621,306.950775 
	C326.405487,305.429535 329.326111,305.869110 329.391846,304.053772 
	C327.068909,301.126068 323.001892,303.388947 320.714630,300.862305 
	C320.616638,298.484161 325.693695,297.009979 322.788391,295.152710 
	C318.580231,292.462585 319.121429,287.795227 316.189697,284.325439 
	C320.743469,283.091217 325.001556,283.452698 329.201874,284.055298 
	C343.702301,286.135620 352.123199,295.918335 358.849823,307.765106 
	C359.810272,309.456573 360.357941,311.445587 362.303131,312.431213 
	C363.285370,311.099274 362.001556,309.324951 363.395630,308.132935 
	C364.097260,308.467072 364.809326,308.806183 365.722778,309.241211 
	C364.968445,304.865387 363.100616,301.110474 363.413666,296.826172 
	C366.244507,297.352203 366.549591,299.991760 368.891876,301.884064 
	C367.315887,296.033356 365.948975,290.958771 364.348846,285.113373 
M638.044800,302.274811 
	C658.468628,312.613708 670.144714,329.126526 671.141968,352.027618 
	C672.098938,374.001862 662.243408,391.192688 643.706604,402.543121 
	C625.492188,413.696106 606.464355,413.294800 587.667175,403.089783 
	C586.049255,402.211426 584.538818,400.428101 582.222107,401.680634 
	C581.757751,405.243195 583.943054,407.754700 585.694397,410.272614 
	C604.097412,436.730011 637.596741,449.713593 669.124329,442.586395 
	C704.772705,434.527649 729.099060,405.710724 732.353760,371.286011 
	C734.974731,343.563568 725.586609,319.188110 704.594971,300.476318 
	C676.731384,275.638947 640.439453,270.409302 606.843201,291.087799 
	C604.830322,292.326752 602.451111,293.385590 601.973511,296.730652 
	C608.243713,297.313934 614.195557,296.254608 620.122131,297.239227 
	C626.066528,298.226746 631.895325,299.336334 638.044800,302.274811 
M352.446838,457.666840 
	C352.809845,453.968353 349.358002,456.450409 348.065125,454.923706 
	C347.827423,450.144775 350.293213,445.434967 349.661224,440.444214 
	C348.371460,439.675751 347.087097,442.167114 345.934845,440.066010 
	C346.149567,438.942719 346.558228,437.655273 346.617493,436.351990 
	C346.921814,429.664459 345.687531,422.831055 348.927124,416.448120 
	C350.050995,414.233795 350.782654,411.812866 351.605713,409.455658 
	C352.417786,407.129852 353.118835,404.765320 353.868622,402.417786 
	C318.556610,453.180573 300.354004,508.772552 305.085754,571.053894 
	C311.433563,566.475708 316.733734,561.238037 321.170410,555.319885 
	C325.864197,549.058655 331.369110,545.520691 339.377686,547.012146 
	C345.303558,548.115845 348.556030,545.186218 351.063690,540.122681 
	C352.708618,536.801147 354.007080,533.084900 357.588226,530.909058 
	C367.997620,524.584473 377.620941,517.161255 387.070526,509.493835 
	C390.346039,506.836029 393.416473,503.751434 398.129913,502.110535 
	C401.228943,509.793549 404.332275,517.109802 407.118439,524.544922 
	C408.638550,528.601624 411.210571,531.536560 414.420044,534.379517 
	C425.195526,543.924500 437.664459,551.414307 447.820618,562.083069 
	C450.875824,558.139404 451.965668,553.361755 453.486847,548.874695 
	C459.053741,532.453796 461.971466,515.676331 458.820709,498.326355 
	C457.804901,492.732605 457.174500,492.596069 452.611206,496.255707 
	C451.946655,496.788696 451.160797,496.955688 450.481110,497.311981 
	C446.640350,499.325043 442.522644,501.086548 439.243591,503.824982 
	C435.072815,507.308228 431.026733,511.055267 427.081360,515.288574 
	C425.850220,503.126221 422.701874,490.585938 436.626526,482.039581 
	C429.179443,479.563690 422.386932,477.661621 415.193115,480.053345 
	C414.349762,478.270081 415.132446,477.156799 415.781708,476.010315 
	C418.354797,471.466919 422.034576,468.144592 427.071106,466.738739 
	C431.589386,465.477509 432.123962,463.108521 429.890442,459.414124 
	C429.126282,458.150177 428.711243,456.645386 427.324005,456.005035 
	C425.663330,455.626251 425.170105,458.489532 423.161804,457.121338 
	C422.081757,453.270386 423.418701,448.539276 420.084473,445.260010 
	C418.070953,445.400391 418.558838,448.114502 416.448944,447.981415 
	C414.091339,445.526733 415.570404,441.526886 413.390869,439.166809 
	C406.072998,441.257996 408.043396,432.713226 404.000397,431.304810 
	C403.136993,432.043213 405.036926,433.694611 402.710144,434.160828 
	C399.890533,430.754547 396.950226,427.202454 393.921173,423.543152 
	C391.663300,426.609802 390.622467,424.524750 389.544250,422.605164 
	C385.639313,415.653137 381.735870,408.700317 377.831879,401.747772 
	C379.170074,412.004089 382.751617,421.904022 380.684631,432.925201 
	C379.362061,431.834412 378.636230,431.235809 377.819305,430.562012 
	C378.316864,437.306458 378.782166,443.613403 379.242920,449.858398 
	C376.937164,450.102722 376.666626,447.848907 374.374603,448.505341 
	C374.374603,454.017426 374.374603,459.738556 374.374603,465.969299 
	C369.783081,464.690216 368.654724,467.126068 367.587555,470.260559 
	C365.109192,477.540314 360.082092,482.722717 353.151367,487.328033 
	C352.412994,481.233948 355.724823,476.360016 354.257874,471.520508 
	C352.417236,470.027679 350.940796,472.789673 348.902313,470.968964 
	C350.702148,467.112457 351.338715,462.717010 352.446838,457.666840 
M323.728668,724.648010 
	C336.808228,725.361877 343.739868,732.463806 346.449677,745.111633 
	C348.070831,752.678162 348.773224,752.446167 356.652527,751.302429 
	C373.110779,748.913452 389.442108,748.236023 405.393127,754.449829 
	C413.992096,757.799683 422.232208,761.744385 430.886322,766.902527 
	C427.356476,767.769531 425.319946,766.371948 423.183136,765.680176 
	C409.410156,761.221069 395.338074,758.671814 380.880707,760.431396 
	C369.987885,761.757080 359.157593,763.727783 348.385345,765.847778 
	C344.165009,766.678345 342.220520,765.518860 341.105438,761.534790 
	C339.445404,755.603638 337.396637,749.782410 335.612610,743.884399 
	C334.589783,740.502930 332.575256,738.910583 328.962799,738.170410 
	C312.343872,734.765320 295.821014,730.892822 279.209839,727.447510 
	C274.616333,726.494812 272.609772,724.053528 271.558014,719.634399 
	C267.975067,704.580200 263.291565,689.745850 260.517242,674.555664 
	C258.603210,664.075989 251.936768,660.071289 243.024261,656.753418 
	C243.279053,658.509888 243.275665,660.025024 243.729843,661.387756 
	C251.002579,683.208740 255.420578,705.693481 258.862396,728.357849 
	C259.787079,734.446960 262.723724,735.934387 268.222107,736.855225 
	C284.279236,739.544556 300.411865,741.901489 316.266235,745.741699 
	C320.348511,746.730408 322.881226,748.691956 324.166168,752.934753 
	C326.770569,761.534180 329.915466,769.969055 332.790131,778.487793 
	C334.686584,784.107666 336.500427,789.755432 338.544189,795.978210 
	C359.520386,786.881165 380.147614,778.543213 402.775665,777.188782 
	C385.067993,773.775452 367.613617,775.948730 350.219025,779.124207 
	C387.797638,761.954468 422.485718,767.135864 454.483551,793.107666 
	C447.838806,786.219543 440.593536,780.475830 433.167877,774.915710 
	C446.306366,778.953857 456.025452,787.868225 465.561462,797.077209 
	C458.539734,785.666809 446.503479,779.757629 437.051208,770.959412 
	C450.497406,776.821106 461.712189,785.914551 472.922272,795.088196 
	C471.664185,790.627991 468.817444,787.482117 465.704529,784.495239 
	C451.740692,771.096802 434.489716,763.062744 417.342407,754.885498 
	C398.941589,746.110596 379.625031,742.907837 359.516083,746.722046 
	C354.235016,747.723694 352.046051,746.021790 351.034210,741.380615 
	C350.685425,739.780762 349.812653,738.260254 350.286987,736.182922 
	C357.425659,734.393555 365.066101,734.153320 373.046936,731.366333 
	C370.484161,730.579712 368.796967,729.925049 367.049927,729.546143 
	C340.896545,723.873901 314.757721,718.129944 288.552673,712.706055 
	C284.444580,711.855713 282.589111,709.951599 281.639252,706.138794 
	C278.018188,691.603577 274.421051,677.057129 270.414459,662.626099 
	C269.056366,657.734497 270.589874,656.377441 275.166260,655.274719 
	C297.971954,649.779541 320.870300,644.565552 343.035919,636.729858 
	C346.101044,635.646240 348.446014,636.596375 350.987762,638.110779 
	C371.738098,650.473816 392.520538,662.783203 413.324799,675.055359 
	C415.088104,676.095520 416.754883,677.764648 419.426025,676.999390 
	C419.290680,672.663391 416.049194,670.637390 413.157684,668.668213 
	C405.864746,663.701843 398.402802,658.982361 390.981598,654.205872 
	C377.235291,645.358459 362.955231,637.479309 348.101929,630.641907 
	C345.932617,629.643372 343.810486,629.016357 341.366058,629.698486 
	C317.480103,636.364136 293.246246,641.632324 269.203430,647.667847 
	C267.033051,648.212708 265.163879,648.163208 262.533020,646.306702 
	C268.329376,668.627258 273.861633,689.839478 279.324585,711.069519 
	C280.108765,714.117004 282.054321,715.148193 284.969910,715.781189 
	C297.653687,718.535095 310.283417,721.537781 323.728668,724.648010 
M388.103058,731.379578 
	C388.658752,731.742493 389.169159,732.231628 389.776855,732.449707 
	C403.444916,737.355835 416.628693,743.304382 429.093933,750.778381 
	C431.670074,752.323120 433.379974,751.323730 435.180420,749.446167 
	C437.225403,747.313599 437.010040,745.162292 435.294495,743.210999 
	C430.018768,737.210449 424.632874,731.305603 419.218903,725.428833 
	C418.351532,724.487305 417.091064,723.321594 415.724487,724.159973 
	C412.191437,726.327576 408.535736,724.993958 405.001190,724.642212 
	C399.846222,724.129211 398.108704,721.973450 399.026764,716.941345 
	C399.831238,712.531616 398.095795,709.520996 395.062347,706.861938 
	C393.310364,705.326233 391.477600,703.877930 389.628235,702.459290 
	C387.110474,700.528015 386.619507,698.255737 388.153656,695.463318 
	C388.867371,694.164185 389.572937,692.813538 389.967651,691.398499 
	C390.419434,689.778809 390.964142,688.475769 392.931274,688.875549 
	C395.117645,689.320007 396.351868,691.070618 395.523224,692.909851 
	C393.310638,697.821045 396.616333,700.167358 399.424744,703.005737 
	C402.789276,706.406128 406.738647,709.611023 405.695618,715.299744 
	C405.327667,717.306641 405.558685,719.083374 407.931763,719.536865 
	C409.973663,719.927002 411.935608,719.694092 413.269867,717.749634 
	C414.572815,715.850769 414.637939,714.144714 412.833282,712.433594 
	C411.388733,711.063965 410.025818,709.572876 408.829742,707.982910 
	C404.329285,702.000427 404.747101,698.451477 410.378662,693.687317 
	C415.353363,689.478760 416.262329,684.488037 412.354401,682.041992 
	C395.983521,671.795410 379.564850,661.625061 363.148712,651.450989 
	C361.895721,650.674500 360.451080,649.602539 359.016571,650.716248 
	C357.586517,651.826416 358.190552,653.482971 358.724365,654.877319 
	C360.985291,660.782837 363.242249,666.691833 365.648438,672.538696 
	C366.425781,674.427551 366.765717,676.757690 369.595581,677.871948 
	C370.081909,672.717224 372.672546,670.351196 377.968353,670.258057 
	C380.801758,670.208313 383.473938,669.674927 384.949219,672.388916 
	C386.578369,675.386108 382.067261,675.015503 381.807983,677.165527 
	C384.107330,682.698547 384.107330,682.698608 378.098602,682.895386 
	C374.071838,683.027222 371.199005,686.777771 372.596527,690.600769 
	C377.508240,704.037415 382.601959,717.407471 388.103058,731.379578 
M314.671967,622.055176 
	C321.010345,619.701294 328.189850,619.740845 334.209717,615.964722 
	C332.853424,613.517883 330.969940,613.087952 329.297699,612.496582 
	C321.453522,609.722351 313.594940,606.984680 305.699280,604.361084 
	C289.526825,598.987122 272.792511,596.126343 256.014740,593.523071 
	C250.313110,592.638428 248.703583,594.146545 249.436142,600.066162 
	C250.072708,605.210144 250.542847,610.350220 250.242081,615.493652 
	C249.999878,619.635437 251.846130,621.597351 255.608200,622.543823 
	C260.674377,623.818359 265.462311,625.888855 269.288177,629.485474 
	C271.535461,631.598145 273.698273,631.955444 276.524872,631.265076 
	C288.969574,628.225708 301.443237,625.304932 314.671967,622.055176 
M454.608032,686.270325 
	C451.038788,687.022400 447.467804,687.766357 443.900757,688.528748 
	C439.997253,689.363159 438.612732,691.108215 440.619202,695.200378 
	C444.787872,703.702271 448.617401,712.372559 452.490112,721.016663 
	C454.928741,726.459656 456.207428,732.207703 464.610565,732.077759 
	C469.941803,731.995361 472.581512,732.275024 474.240326,726.831177 
	C475.312653,723.312134 477.427429,721.670105 480.676361,720.715759 
	C483.369171,719.924805 488.023773,719.149048 487.940216,717.203796 
	C487.688263,711.340149 492.558563,706.964661 492.052368,701.820312 
	C491.683411,698.070251 492.296326,695.525635 494.245056,692.713318 
	C497.802673,687.579163 496.251343,684.191223 490.138306,683.770813 
	C478.475830,682.968689 466.929535,684.087036 454.608032,686.270325 
M507.963715,757.348022 
	C507.075958,759.033020 505.429230,760.563171 506.995758,763.063477 
	C528.010925,762.984070 547.876160,768.358154 567.757751,778.753601 
	C563.010559,772.718994 557.907959,769.257324 553.099121,765.469543 
	C546.607666,760.356323 542.099792,754.001526 540.544312,745.733521 
	C540.147461,743.624146 539.580750,741.592163 538.194336,739.777832 
	C531.328186,730.792480 524.595032,721.705566 517.736145,712.714600 
	C516.579895,711.198853 515.659424,709.237061 512.411865,708.819153 
	C512.058105,715.242065 507.143097,718.819641 503.167725,723.176453 
	C500.728210,725.850098 500.570984,729.229431 503.152832,732.271362 
	C504.859039,734.281494 505.883942,736.547791 504.906128,739.164490 
	C503.882721,741.903076 504.812225,743.827637 506.661407,745.878540 
	C509.491333,749.017334 511.108765,752.583557 507.963715,757.348022 
M286.361115,660.970398 
	C279.933441,662.543884 279.653992,663.124268 281.436462,669.466003 
	C284.176147,679.213623 286.959503,688.953491 289.420837,698.772705 
	C290.388397,702.632446 292.234894,704.711304 296.228088,705.502075 
	C303.224518,706.887512 310.123566,708.760193 317.078033,710.365479 
	C318.664337,710.731628 320.330811,711.123657 321.940094,710.043945 
	C322.970123,707.719482 322.052032,705.343567 321.421600,703.284607 
	C319.908295,698.342102 319.569977,694.010498 322.073517,688.980286 
	C324.109619,684.889160 321.869873,678.801941 319.063629,676.824890 
	C315.210571,674.110352 313.047668,670.391418 309.837250,667.465637 
	C306.549774,664.469666 303.729248,660.462280 300.387787,658.360168 
	C296.904785,656.168884 291.699768,660.073792 286.361115,660.970398 
M345.736511,677.745605 
	C342.675323,674.980713 331.831055,674.346497 328.630707,676.707031 
	C327.754547,677.353455 326.884949,678.310242 327.379120,679.177368 
	C330.750610,685.093933 329.639008,690.884766 327.332520,696.765869 
	C327.010101,697.587952 327.359344,698.758484 327.614746,699.709534 
	C331.894684,715.645386 327.760956,712.384216 343.660339,716.247620 
	C351.735413,718.209717 359.853729,720.002747 367.982697,721.729980 
	C371.091675,722.390564 373.745239,721.736145 372.326630,717.682312 
	C369.744568,710.303772 366.827148,703.043091 364.096100,695.715942 
	C363.034576,692.867920 361.072357,692.004028 358.187195,692.573181 
	C355.583527,693.086853 352.957367,693.590088 350.318054,693.783813 
	C348.460297,693.920288 347.146057,692.823181 346.954132,690.835083 
	C346.769440,688.922119 348.007538,688.216003 349.646149,687.904663 
	C350.900757,687.666504 352.372833,688.085876 353.494659,686.460510 
	C352.498077,682.610657 348.403961,681.232239 345.736511,677.745605 
M514.477966,682.023682 
	C507.664154,675.894531 501.000610,669.575928 491.370209,668.033936 
	C471.912750,664.918335 453.372925,669.342957 434.953400,674.772217 
	C432.985565,675.352173 431.905670,676.713684 432.634552,678.986694 
	C433.427216,681.458740 434.983490,681.635620 437.307831,681.145386 
	C455.087524,677.395935 472.979340,675.128540 491.240051,676.533875 
	C495.788483,676.883972 499.211823,678.423279 502.029999,681.762268 
	C509.434448,690.534973 516.849243,699.299194 524.217957,708.101807 
	C529.402222,714.294922 534.517822,720.545532 539.615540,726.711731 
	C543.115112,724.907593 543.749939,721.530151 546.027710,719.662354 
	C549.234558,717.032654 548.502747,715.006042 545.793518,712.422729 
	C535.436157,702.546387 525.247559,692.493042 514.477966,682.023682 
M516.536194,774.001892 
	C506.078888,773.995300 496.057281,776.221130 486.395172,780.083984 
	C478.463318,783.255127 478.122620,784.882324 483.751984,791.152588 
	C484.056854,791.492004 484.558167,791.655090 485.219238,792.050476 
	C494.206085,785.468689 504.334686,781.328857 515.369995,779.881531 
	C526.359924,778.440063 537.234314,779.216919 547.666687,783.550171 
	C540.865295,784.388184 534.053894,783.928162 527.356689,785.283142 
	C514.404846,787.903564 502.348053,792.225891 493.235016,802.438599 
	C489.703918,806.395874 488.609314,809.098694 489.148163,813.027344 
	C496.282318,803.560059 505.660522,797.848511 516.520020,794.373596 
	C532.550415,789.243896 548.604736,790.181519 564.772644,793.837646 
	C573.104980,795.721863 581.201599,798.482605 590.839172,801.076233 
	C588.846497,798.846558 587.867432,797.761536 586.899658,796.666504 
	C581.261047,790.286316 574.391113,786.411316 566.126404,783.763123 
	C550.225769,778.668091 534.464600,773.601257 516.536194,774.001892 
M427.034851,724.474060 
	C431.106232,729.099365 435.319244,733.608826 439.216766,738.376282 
	C445.511414,746.075745 445.436737,746.628235 439.816193,754.530273 
	C439.656555,754.754761 439.757355,755.164490 439.705048,755.984558 
	C444.833557,759.306641 449.746979,763.425354 456.463318,765.047424 
	C445.870331,739.375610 435.242371,713.888550 422.652924,688.308105 
	C419.421051,692.350647 417.468719,695.520447 414.819214,697.920654 
	C411.590546,700.845520 412.223328,703.099365 414.707489,705.917786 
	C416.554749,708.013733 420.145966,709.492676 419.961090,712.294861 
	C419.587677,717.955200 423.560120,720.543701 427.034851,724.474060 
M493.276245,765.684692 
	C501.090424,764.898254 497.950958,756.453308 502.512146,753.071838 
	C496.784729,753.301819 492.475220,748.971985 487.350861,749.408325 
	C479.720795,750.058105 473.849792,747.564636 468.779236,742.005798 
	C466.935455,739.984558 464.548889,737.808899 461.110687,738.792725 
	C461.621857,741.869385 472.342346,767.204163 473.890442,769.732971 
	C475.312256,772.055481 476.973816,771.769409 478.956848,770.748291 
	C483.257721,768.533508 487.877258,767.186096 493.276245,765.684692 
M319.407196,669.261536 
	C320.650299,670.707214 322.287201,670.754028 323.985687,670.525574 
	C327.767853,670.016968 331.536682,669.377319 335.332153,669.010498 
	C337.919128,668.760559 338.785645,667.575073 340.084320,665.179504 
	C342.239838,661.203064 341.027344,654.140869 348.514404,654.422363 
	C347.528259,646.765320 345.849518,644.516235 341.633484,645.644348 
	C331.539673,648.344971 321.512970,651.296448 311.459839,654.148804 
	C310.193817,654.507996 308.694366,654.669556 308.560089,656.383789 
	C308.440002,657.917053 309.555237,658.836853 310.700592,659.504883 
	C314.446747,661.689941 316.598541,665.270569 319.407196,669.261536 
M477.288513,734.506897 
	C476.194824,735.400146 474.348328,735.491150 474.169159,737.560303 
	C476.593231,740.179016 479.066956,743.814331 482.899353,743.311157 
	C487.981781,742.643799 492.680603,742.559021 497.251587,745.675720 
	C498.635712,741.776062 499.566559,738.611755 497.594360,735.446533 
	C493.956482,729.607788 493.198334,723.530701 498.167023,719.242554 
	C503.755554,714.419495 505.729156,709.499756 505.565491,702.389343 
	C505.473877,698.408813 504.953308,695.755188 500.517822,693.251770 
	C499.680817,700.363342 497.731293,706.844116 496.808105,713.163635 
	C496.080597,718.143555 494.996094,721.415161 490.767029,723.259216 
	C485.312958,725.637390 479.798004,727.687256 477.288513,734.506897 
M231.581314,590.022644 
	C226.392075,587.449768 223.014236,583.023682 220.192413,577.825195 
	C218.813599,579.665100 219.237305,581.041565 219.525314,582.234131 
	C222.058914,592.725525 224.698990,603.184570 227.754593,613.547180 
	C229.316254,618.843201 233.541565,617.899658 237.005692,618.234009 
	C240.950226,618.614746 239.907501,614.680969 240.289139,612.677673 
	C242.820007,599.392151 241.151764,595.111816 231.581314,590.022644 
M598.722473,790.802856 
	C587.265076,778.064392 573.904602,767.281555 561.984314,755.004028 
	C554.000183,746.780579 555.295593,736.024536 565.552490,730.520569 
	C568.116333,729.144775 570.778076,727.951355 574.056946,726.350952 
	C568.958740,724.760620 564.774658,723.800232 560.404236,726.269287 
	C550.870728,731.655151 548.676941,745.751160 556.702515,753.210815 
	C570.449951,765.989136 584.492371,778.450073 598.722473,790.802856 
M521.524841,228.107437 
	C520.704529,227.062164 520.994934,224.972656 518.190735,225.226318 
	C517.049683,231.629623 511.473846,234.458374 504.839325,238.359970 
	C513.718689,240.476746 517.263428,245.907074 519.625366,253.150101 
	C520.878906,244.640137 526.553650,240.842102 535.196655,238.325073 
	C528.621338,236.049377 523.872437,234.046371 521.524841,228.107437 
M771.526306,422.120819 
	C773.796570,418.328888 778.458984,418.096069 782.744019,415.090302 
	C774.729980,413.569977 770.690125,408.668243 767.464233,402.220642 
	C765.517517,409.600708 760.038452,412.592560 753.857178,415.492584 
	C761.403259,417.222900 765.201050,422.302582 767.574524,430.007660 
	C769.147827,426.765991 770.129333,424.743652 771.526306,422.120819 
M638.809021,787.326843 
	C638.632080,786.875366 638.580688,786.287903 638.260132,785.991882 
	C623.706848,772.552002 609.141235,759.125366 594.538269,745.739502 
	C593.105042,744.425659 591.437866,743.605835 589.997253,745.982483 
	C590.597778,748.035278 592.250183,749.265991 593.693054,750.570007 
	C607.154480,762.735840 620.856506,774.645020 633.472900,787.710449 
	C635.338806,789.642700 636.838806,789.380249 638.809021,787.326843 
M586.314758,738.351196 
	C585.352173,735.061646 582.468323,733.472229 580.089905,731.497131 
	C575.813293,727.945740 569.849609,729.019226 565.843811,734.252441 
	C562.418335,738.727600 567.659607,740.024719 569.337158,742.587036 
	C569.867371,743.396851 570.865723,743.884705 571.496338,744.646912 
	C573.818176,747.453003 576.013367,748.094116 578.841431,745.068665 
	C580.982849,742.777710 583.630981,740.960266 586.314758,738.351196 
M720.721497,500.451569 
	C720.567017,499.215759 719.496094,498.846985 718.611816,498.622192 
	C714.201111,497.500946 711.446655,494.700653 709.907532,490.521118 
	C709.554749,489.563263 708.963745,488.752228 707.055603,488.787109 
	C705.684631,493.771637 700.811279,496.309082 696.505615,500.533142 
	C702.718384,502.810638 705.553711,507.381531 708.473267,512.487671 
	C710.652039,506.284180 715.220947,503.253235 720.721497,500.451569 
M551.532166,466.375732 
	C553.182312,470.883057 557.079163,473.925812 559.207092,478.614624 
	C561.650635,472.972656 565.997559,469.632721 571.805115,466.393188 
	C566.032043,463.103394 562.094849,459.338074 559.603577,453.533356 
	C556.276733,457.632050 553.532043,460.977844 550.864380,464.384003 
	C550.694336,464.601105 551.121582,465.286072 551.532166,466.375732 
M630.814270,537.230896 
	C631.862366,534.647949 635.665649,534.920105 636.519592,531.453552 
	C634.042786,529.372925 631.096619,527.484070 629.279358,524.460999 
	C628.579773,523.297241 627.095642,523.304810 626.289124,524.390930 
	C624.266846,527.114258 620.879028,528.695862 619.508545,532.250366 
	C622.687744,534.623779 625.229553,537.394348 627.286499,540.305664 
	C629.283386,540.290405 629.722412,538.882629 630.814270,537.230896 
M429.123749,569.401917 
	C430.594238,571.629822 431.366302,574.423096 434.036469,576.111755 
	C436.829956,562.033325 432.601929,554.623108 422.259064,555.401062 
	C423.738556,560.261536 426.571075,564.369324 429.123749,569.401917 
M350.401733,659.139404 
	C350.293396,659.012878 350.203949,658.858948 350.071381,658.767517 
	C349.940582,658.677246 349.660034,658.564880 349.625977,658.607361 
	C346.164215,662.921692 345.794830,667.434998 349.270752,671.616821 
	C351.901093,674.781372 355.223511,677.370728 358.383026,680.352966 
	C356.426727,673.088074 353.912476,666.234924 350.401733,659.139404 
M236.430023,636.437195 
	C243.229431,637.744202 249.603043,640.355347 256.933563,643.928284 
	C255.509628,640.598206 256.558899,637.443665 253.435181,636.617554 
	C247.102249,634.942688 240.805740,632.900940 234.196396,632.689148 
	C233.589920,634.630493 234.630478,635.425415 236.430023,636.437195 
M400.167145,531.248230 
	C399.441803,528.871155 398.655975,526.510559 398.005463,524.113159 
	C397.049774,520.591003 394.667999,519.584412 390.595093,519.908936 
	C393.866272,527.413086 397.208710,534.268616 402.280640,540.213257 
	C401.661682,537.477783 401.042725,534.742371 400.167145,531.248230 
M397.033691,561.444092 
	C396.018799,560.143677 395.011932,558.836914 393.986755,557.544678 
	C392.965576,556.257446 391.925934,554.984863 390.894379,553.705872 
	C395.134827,560.451965 392.824158,571.952087 404.556976,573.264465 
	C404.556976,572.756653 404.682739,572.360657 404.538208,572.151367 
	C402.196594,568.761230 399.820618,565.394775 397.033691,561.444092 
M565.353088,278.048065 
	C565.197815,274.398895 562.138855,272.727448 560.364258,270.018372 
	C554.385376,277.948120 554.389587,278.086426 560.616089,283.158539 
	C562.740295,282.321381 563.080994,279.679413 565.353088,278.048065 
M509.922852,297.085358 
	C511.408447,303.814301 513.968811,303.989136 521.912964,297.618286 
	C517.857605,297.159729 514.928528,289.694855 509.922852,297.085358 
M528.806335,399.637604 
	C533.956238,398.551971 535.799133,396.402283 533.724854,393.727722 
	C532.677368,392.377075 531.634033,390.355225 529.585327,390.597229 
	C527.421082,390.852875 526.459534,392.947571 525.677734,394.694519 
	C524.624634,397.047882 526.455688,398.265320 528.806335,399.637604 
M740.393799,532.355286 
	C740.033325,529.448120 737.261475,528.409241 735.703918,525.384155 
	C734.555664,529.035828 730.127502,531.127747 734.000000,534.700562 
	C736.712158,537.202881 738.417969,534.765137 740.393799,532.355286 
M422.482330,278.017181 
	C423.181061,277.008362 425.035645,276.897339 424.777466,275.150421 
	C419.960999,270.788361 419.611267,270.833038 416.581543,276.259521 
	C418.030579,277.845673 418.999023,280.532440 422.482330,278.017181 
M733.527466,450.165924 
	C730.175476,453.030914 731.791687,455.151520 734.420471,457.199249 
	C736.619385,456.643646 737.889282,455.222900 739.157349,453.435059 
	C737.757629,451.727173 737.109131,449.198883 733.527466,450.165924 
M618.449524,783.045044 
	C615.479431,780.314209 612.509338,777.583374 609.539246,774.852600 
	C609.778748,774.637451 610.018188,774.422363 610.257690,774.207275 
	C615.030518,779.430786 619.803406,784.654297 624.576233,789.877808 
	C624.815857,789.628296 625.055481,789.378784 625.295105,789.129333 
	C623.183655,787.262451 621.072205,785.395569 618.449524,783.045044 
M604.335510,771.301636 
	C604.728149,771.567566 605.120789,771.833435 605.513428,772.099365 
	C605.219055,772.380615 604.924744,772.661865 604.630371,772.943054 
	C600.992004,768.510193 597.353699,764.077271 593.715393,759.644409 
	C596.205627,764.314880 600.388855,767.296814 604.335510,771.301636 
M460.578125,287.716949 
	C458.304321,286.762878 456.939514,287.392853 456.384674,290.212341 
	C458.241333,291.121857 459.908844,291.812256 461.752167,291.385925 
	C462.650635,289.859161 461.742096,289.037201 460.578125,287.716949 
M601.934875,734.420837 
	C603.686707,736.293335 604.805298,735.347778 605.446472,733.482483 
	C605.930237,732.075195 605.416748,730.699646 603.808960,730.580872 
	C601.493713,730.409973 601.218750,731.985840 601.934875,734.420837 
M390.238373,628.470886 
	C388.509766,630.778076 390.204010,631.367981 391.973267,631.726929 
	C393.040955,631.943481 394.173431,631.416321 394.135284,630.255554 
	C394.067383,628.189575 392.420502,628.150452 390.238373,628.470886 
z"/>
<path fill="#000000" opacity="1.000000" stroke="none" 
	d="
M244.348206,479.612885 
	C246.763641,481.749817 244.296753,481.244995 243.661484,481.296692 
	C239.857727,481.606079 235.994492,480.944305 232.231674,481.993317 
	C230.872375,482.372284 229.104630,482.045959 228.604706,484.126617 
	C229.319473,487.463776 235.700165,483.641541 234.889191,489.283051 
	C232.038422,489.283051 229.175827,489.283051 226.023407,489.283051 
	C225.417725,482.816071 226.768112,476.805969 227.694824,470.795135 
	C231.258438,447.680817 239.102158,426.166382 252.009628,406.571838 
	C256.076172,400.398529 261.390015,395.826660 268.389526,393.300568 
	C269.468994,392.910980 270.522400,392.234619 271.651459,393.158142 
	C270.996338,396.008392 263.598419,407.237671 261.305420,408.866974 
	C262.511658,414.544281 262.393463,414.642609 251.161819,417.160736 
	C253.121140,419.510742 256.328583,417.812775 258.628937,419.834137 
	C256.561218,426.058685 249.765121,422.639404 245.541321,426.116180 
	C249.132584,426.870087 252.070389,427.486816 255.541092,428.215424 
	C252.639786,434.813690 245.688644,430.369446 242.030899,433.876678 
	C243.768524,436.174133 246.074188,435.424438 248.107834,435.662659 
	C249.509537,435.826935 251.542480,435.303345 251.632538,437.428253 
	C251.722977,439.562805 249.759186,439.946381 248.082169,440.151245 
	C245.778732,440.432648 243.446259,440.485077 241.148468,440.798676 
	C240.401886,440.900574 239.525955,441.279327 239.281906,442.565094 
	C242.716034,444.828735 247.208420,443.785309 251.689697,446.038483 
	C246.979340,450.292938 240.672729,446.398743 236.426102,450.308990 
	C240.283661,453.579559 245.801987,451.770599 250.730820,455.246246 
	C244.731308,457.328064 238.607086,455.056885 233.653336,459.043304 
	C238.585907,462.269226 244.323669,460.665497 249.121185,463.299530 
	C243.191650,465.054749 236.667145,463.838806 229.892380,467.030396 
	C235.861069,471.064148 242.265579,469.070465 248.032410,471.442200 
	C242.142731,474.636261 234.829208,471.389069 228.986893,475.904694 
	C233.978470,479.908722 239.424759,477.813751 244.348206,479.612885 
z"/>
<path fill="#000000" opacity="1.000000" stroke="none" 
	d="
M622.914551,712.263062 
	C611.493103,711.997742 600.511292,713.152527 589.631042,711.054504 
	C587.623596,710.667419 585.505676,710.638245 584.616272,708.492737 
	C583.636108,706.128174 585.322876,704.398682 586.553711,702.668701 
	C587.018982,702.014771 587.709778,701.416138 588.430603,701.064636 
	C603.195618,693.865173 618.584595,689.939697 635.139038,692.384705 
	C636.238037,692.546997 637.485107,692.730286 638.146790,694.422791 
	C634.534180,696.515991 633.903687,699.038147 636.396057,702.990173 
	C638.417358,706.195129 635.998535,709.821533 631.784973,711.404419 
	C629.071716,712.423706 626.212402,712.134521 622.914551,712.263062 
z"/>
<path fill="#000000" opacity="1.000000" stroke="none" 
	d="
M664.546509,665.155396 
	C671.842468,663.172180 678.799011,662.221863 686.292786,664.726135 
	C682.954956,669.451172 677.909485,672.335815 675.992371,677.671082 
	C675.762024,678.312195 674.312012,678.854553 673.420166,678.865601 
	C665.445557,678.964783 657.451721,679.586731 649.511536,678.315186 
	C648.752563,678.193665 647.826904,678.130676 647.367920,676.416565 
	C654.863525,675.661621 659.359680,670.252991 664.546509,665.155396 
z"/>
<path fill="#000000" opacity="1.000000" stroke="none" 
	d="
M613.430298,639.930542 
	C626.260925,640.390076 638.774841,638.310120 651.050964,641.455139 
	C636.852600,649.496094 622.835327,644.093506 608.221069,641.384094 
	C609.796570,639.485413 611.542664,640.206848 613.430298,639.930542 
z"/>
<path fill="#000000" opacity="1.000000" stroke="none" 
	d="
M507.007507,641.890015 
	C508.292847,641.906494 509.137756,641.832886 509.952301,641.957703 
	C511.808472,642.241882 514.578064,641.353027 515.030884,643.881348 
	C515.486084,646.423035 512.970703,647.479492 510.918457,648.119141 
	C504.684174,650.062256 498.647034,648.875671 491.213287,646.733276 
	C496.657288,643.064697 501.395233,641.863586 507.007507,641.890015 
z"/>
<path fill="#000000" opacity="1.000000" stroke="none" 
	d="
M690.010071,649.102966 
	C691.202515,651.466064 691.181030,651.832520 688.566650,651.938965 
	C682.617554,652.181152 676.653381,652.178345 670.698303,652.083984 
	C668.183289,652.044189 665.434509,652.676575 662.049011,649.877563 
	C671.927734,647.294983 680.759949,647.446655 690.010071,649.102966 
z"/>
<path fill="#000000" opacity="1.000000" stroke="none" 
	d="
M611.242554,624.924072 
	C617.293579,624.703125 623.007324,622.661255 628.511047,625.860474 
	C621.199280,627.678162 613.886414,629.065063 606.037231,626.929077 
	C607.453186,624.522888 609.302490,625.234619 611.242554,624.924072 
z"/>
<path fill="#000000" opacity="1.000000" stroke="none" 
	d="
M631.983032,612.203125 
	C630.673157,611.355042 628.981079,611.412598 628.973328,609.297485 
	C632.197693,608.306580 635.365295,608.646484 638.432556,609.872559 
	C639.833679,610.432495 641.151855,611.505127 640.379578,613.290222 
	C639.701355,614.858032 638.180908,614.510925 636.923096,614.115906 
	C635.357117,613.624084 633.851379,612.940735 631.983032,612.203125 
z"/>
<path fill="#000000" opacity="1.000000" stroke="none" 
	d="
M477.819641,644.642334 
	C479.948914,644.036255 481.857544,643.520447 483.617737,644.989502 
	C480.439941,647.667969 480.054108,647.653503 477.819641,644.642334 
z"/>
<path fill="#000000" opacity="1.000000" stroke="none" 
	d="
M340.245697,777.029419 
	C337.831879,777.735962 336.952179,776.799622 336.326050,774.861206 
	C333.418945,765.861145 330.373199,756.905823 327.272583,747.621582 
	C330.150024,746.350159 331.544189,747.886353 332.636444,750.130615 
	C335.119781,755.233215 337.059204,760.554260 338.646912,765.984619 
	C339.796814,769.917603 341.530304,771.066772 345.870239,769.847473 
	C357.865753,766.477295 369.841766,762.876831 382.272858,761.320557 
	C395.292633,759.690674 407.261810,763.713745 419.118805,768.266968 
	C419.491272,768.409912 419.691467,769.001526 420.268188,769.787842 
	C413.507843,768.912415 407.178894,767.732544 400.801086,767.333252 
	C380.046875,766.033691 360.147217,770.457336 340.245697,777.029419 
z"/>
<path fill="#000000" opacity="1.000000" stroke="none" 
	d="
M291.824829,735.713196 
	C283.975830,734.562927 276.428314,733.389832 268.883545,732.199097 
	C266.847992,731.877808 264.778595,731.361145 264.285797,729.016052 
	C263.140045,723.563965 261.566986,718.173157 261.151184,711.690430 
	C264.262085,715.114319 264.489441,718.739502 265.157990,722.015625 
	C266.120697,726.733276 268.444427,729.100342 273.308624,729.937683 
	C279.670349,731.032898 285.892822,732.937683 292.171478,734.509094 
	C292.293091,734.539490 292.468048,734.773132 292.446899,734.877075 
	C292.390137,735.156067 292.240234,735.416138 291.824829,735.713196 
z"/>
<path fill="#000000" opacity="1.000000" stroke="none" 
	d="
M388.045959,681.267212 
	C390.261017,679.508789 391.681946,680.357117 392.684479,682.171631 
	C393.295410,683.277405 393.033325,684.408203 391.962555,685.221130 
	C390.849487,686.066101 389.595917,686.512390 388.313873,685.766846 
	C386.380524,684.642639 386.879059,683.098572 388.045959,681.267212 
z"/>
<path fill="#000000" opacity="1.000000" stroke="none" 
	d="
M384.534882,688.682007 
	C385.567230,690.164062 386.887390,691.445557 385.116608,692.750183 
	C384.218781,693.411804 383.186890,692.793823 382.459015,692.063538 
	C381.521698,691.123108 380.412445,690.023315 381.038269,688.628723 
	C381.825073,686.875549 383.133972,687.675720 384.534882,688.682007 
z"/>
<path fill="#000000" opacity="1.000000" stroke="none" 
	d="
M476.758636,700.589661 
	C478.615143,701.083130 479.728943,701.751099 477.962982,703.195801 
	C476.975189,704.003784 475.739410,704.508667 474.896576,704.989685 
	C474.051025,707.227722 476.733490,708.568359 475.469147,710.616333 
	C472.682831,712.023621 471.804169,708.326721 469.500244,708.258911 
	C467.650574,709.166016 467.335754,712.066101 464.774475,712.212463 
	C462.677704,710.819214 464.554077,708.729736 463.878235,707.306213 
	C462.320801,705.503357 459.196075,707.316284 458.277679,704.447876 
	C459.107269,701.684448 462.642059,703.166626 463.856415,700.944031 
	C464.915741,698.515137 460.322723,696.537170 462.857819,694.309387 
	C465.322998,692.142944 466.636169,696.144348 469.078918,696.337158 
	C469.316650,696.219727 469.820953,696.089844 470.163269,695.780640 
	C471.517761,694.557129 472.111359,691.598022 474.673798,693.027832 
	C476.909027,694.275146 475.371490,696.254150 474.627930,697.840149 
	C473.692413,699.835571 475.187897,700.062622 476.758636,700.589661 
z"/>
</svg>